HIERARCHY
ROOT Hips
{
	OFFSET -0.001795 -0.223333 0.028219
	CHANNELS 6 Xposition Yposition Zposition Zrotation Yrotation Xrotation 
	JOINT LeftUpLeg
	{
		OFFSET 0.069520 -0.091406 -0.006815
		CHANNELS 3 Zrotation Yrotation Xrotation
		JOINT LeftLeg
		{
			OFFSET 0.034277 -0.375199 -0.004496
			CHANNELS 3 Zrotation Yrotation Xrotation
			JOINT LeftFoot
			{
				OFFSET -0.013596 -0.397961 -0.043693
				CHANNELS 3 Zrotation Yrotation Xrotation
				JOINT LeftToe
				{
					OFFSET 0.026358 -0.055791 0.119288
					CHANNELS 3 Zrotation Yrotation Xrotation
					End Site
					{
						OFFSET 0.000000 0.000000 0.000000
					}
				}
			}
		}
	}
	JOINT RightUpLeg
	{
		OFFSET -0.067670 -0.090522 -0.004320
		CHANNELS 3 Zrotation Yrotation Xrotation
		JOINT RightLeg
		{
			OFFSET -0.038290 -0.382569 -0.008850
			CHANNELS 3 Zrotation Yrotation Xrotation
			JOINT RightFoot
			{
				OFFSET 0.015774 -0.398415 -0.042312
				CHANNELS 3 Zrotation Yrotation Xrotation
				JOINT RightToe
				{
					OFFSET -0.025372 -0.048144 0.123348
					CHANNELS 3 Zrotation Yrotation Xrotation
					End Site
					{
						OFFSET 0.000000 0.000000 0.000000
					}
				}
			}
		}
	}
	JOINT Spine
	{
		OFFSET -0.002533 0.108963 -0.026696
		CHANNELS 3 Zrotation Yrotation Xrotation
		JOINT Spine1
		{
			OFFSET 0.005487 0.135180 0.001092
			CHANNELS 3 Zrotation Yrotation Xrotation
			JOINT Spine2
			{
				OFFSET 0.001457 0.052922 0.025425
				CHANNELS 3 Zrotation Yrotation Xrotation
				JOINT Neck
				{
					OFFSET -0.002778 0.213870 -0.042857
					CHANNELS 3 Zrotation Yrotation Xrotation
					JOINT Head
					{
						OFFSET 0.005152 0.064970 0.051349
						CHANNELS 3 Zrotation Yrotation Xrotation
						End Site
						{
							OFFSET 0.000000 0.000000 0.000000
						}
					}
				}
				JOINT LeftShoulder
				{
					OFFSET 0.078845 0.121749 -0.034090
					CHANNELS 3 Zrotation Yrotation Xrotation
					JOINT LeftArm
					{
						OFFSET 0.090977 0.030469 -0.008868
						CHANNELS 3 Zrotation Yrotation Xrotation
						JOINT LeftForeArm
						{
							OFFSET 0.259612 -0.012772 -0.027456
							CHANNELS 3 Zrotation Yrotation Xrotation
							JOINT LeftHand
							{
								OFFSET 0.249234 0.008986 -0.001171
								CHANNELS 3 Zrotation Yrotation Xrotation
								End Site
								{
									OFFSET 0.000000 0.000000 0.000000
								}
							}
						}
					}
				}
				JOINT RightShoulder
				{
					OFFSET -0.081759 0.118833 -0.038615
					CHANNELS 3 Zrotation Yrotation Xrotation
					JOINT RightArm
					{
						OFFSET -0.096012 0.032551 -0.009143
						CHANNELS 3 Zrotation Yrotation Xrotation
						JOINT RightForeArm
						{
							OFFSET -0.253742 -0.013329 -0.021401
							CHANNELS 3 Zrotation Yrotation Xrotation
							JOINT RightHand
							{
								OFFSET -0.255298 0.007772 -0.005559
								CHANNELS 3 Zrotation Yrotation Xrotation
								End Site
								{
									OFFSET 0.000000 0.000000 0.000000
								}
							}
						}
					}
				}
			}
		}
	}
}
MOTION
Frames: 5
Frame Time: 0.050000
0.000000 0.870757 0.000000 -1.790937 7.387111 -6.206742 16.559574 -1.237829 11.410907 -9.198174 1.442594 21.229891 2.586129 6.182579 2.107958 0.000000 0.000000 0.000000 -11.937987 -0.329481 -13.621644 7.883684 -2.317207 24.595878 -6.750796 -16.707489 -1.363758 0.000000 0.000000 0.000000 8.205317 -1.016033 9.067452 -5.880298 2.460283 -18.571651 -4.498413 1.568639 25.155823 11.827696 -3.577755 -30.119267 0.000000 0.000000 0.000000 -27.237213 -19.855219 8.157599 -33.082430 -2.364669 -4.057303 -46.665819 -36.320899 17.012875 0.000000 0.000000 0.000000 33.112801 3.237470 3.061410 40.423389 4.271792 -5.315296 33.365714 40.138477 14.705783 0.000000 0.000000 0.000000 
-0.000733 0.865473 0.004856 -1.731482 5.697937 -5.246739 17.374813 -1.145887 10.320449 -10.010351 1.846678 22.989085 0.783411 2.758491 2.337639 0.000000 0.000000 0.000000 -11.697384 -0.234165 -16.663193 7.628751 -2.276231 28.061121 -6.465374 -15.846472 -2.622745 0.000000 0.000000 0.000000 8.814076 -0.865357 7.455760 -6.692614 2.706493 -17.116776 -3.909733 2.544280 24.627223 10.966539 -3.173324 -29.444541 0.000000 0.000000 0.000000 -27.523062 -20.139952 8.403932 -32.999331 -1.805583 -4.137176 -46.725185 -35.063658 16.415675 0.000000 0.000000 0.000000 32.553187 4.099622 3.620886 42.807047 3.992359 -5.586994 32.164690 39.218252 13.971520 0.000000 0.000000 0.000000 
-0.001216 0.860316 0.008949 -1.649452 5.873430 -5.113048 17.089629 -1.196804 11.111172 -8.445006 1.358304 22.201059 -0.476613 -1.071145 -0.133067 0.000000 0.000000 0.000000 -12.692683 -0.396206 -16.396247 9.178456 -2.894383 27.991496 -6.592436 -16.087840 -4.744035 0.000000 0.000000 0.000000 9.251478 -0.841325 6.992676 -6.246019 2.574919 -17.132422 -4.736986 2.067625 25.781042 11.237465 -3.058752 -31.763527 0.000000 0.000000 0.000000 -26.405615 -19.684843 8.258488 -34.172244 -2.759311 -4.229559 -44.239374 -34.824992 15.464887 0.000000 0.000000 0.000000 34.076973 3.813234 3.369868 41.828064 4.277306 -5.508090 29.846664 39.024237 12.918153 0.000000 0.000000 0.000000 
-0.001615 0.859853 0.012659 -1.716075 5.126069 -5.122621 17.040234 -1.233378 12.494005 -8.333083 1.386985 22.327650 -0.232379 -2.550562 -3.538257 0.000000 0.000000 0.000000 -12.915004 -0.404151 -17.156413 9.799273 -3.157183 29.400138 -6.384608 -15.467068 -4.474483 0.000000 0.000000 0.000000 9.896642 -0.846955 6.780794 -6.675760 2.695338 -16.883641 -5.288173 1.745802 25.812630 10.731471 -2.807176 -32.284308 0.000000 0.000000 0.000000 -26.499624 -20.079406 8.802286 -33.804047 -2.224885 -4.371495 -43.751870 -35.010014 15.446850 0.000000 0.000000 0.000000 34.153825 4.272961 3.348781 41.885211 4.252136 -5.408390 32.196999 39.194950 13.836802 0.000000 0.000000 0.000000 
-0.002076 0.860185 0.016349 -1.936098 4.681913 -5.121603 16.747520 -1.137224 12.225046 -7.889410 1.284256 22.218027 0.010004 -0.251789 -0.522115 0.000000 0.000000 0.000000 -12.594534 -0.333297 -17.594585 9.787272 -3.176713 30.359783 -6.277467 -15.175401 -4.147680 0.000000 0.000000 0.000000 10.009844 -0.825099 6.594217 -5.586127 2.376909 -15.972339 -6.312761 1.346779 24.614389 10.999204 -3.161901 -31.312623 0.000000 0.000000 0.000000 -26.259410 -19.694342 8.720208 -33.108473 -2.168405 -4.268787 -46.040999 -34.408666 15.985743 0.000000 0.000000 0.000000 34.486142 4.111434 2.842189 40.813883 3.340081 -5.356923 34.637223 39.265637 14.642948 0.000000 0.000000 0.000000 
